# xmcd
#
# Track frame offsets: 
#        150
#        20304
#        29246
#        39003
#        48627
#        67759
#        80899
#        92321
#        102420
#        113495
#        126217
#        141965
#        160019
#        169793
#        195748
#        208222
#        216703
#        233690
#        245161
#        258443
#        268078
#        280340
#        293132
#        305304
#        316620
#
# Disc length: 4407 seconds
#
# Revision: 3
# Processed by: cddbd v1.5.2PL0 Copyright (c) Steve Scherf et al.
# Submitted via: ExactAudioCopyFreeDBPlugin 1.0
#
DISCID=6d113519
DTITLE=Various Artist - 1000 Juke Box Hits - 50 Country Golden Hits Vol.2 - C
DTITLE=D1
DYEAR=1900
DGENRE=Country
TTITLE0=Gram Parsons and Emmylou Harris - Love Hurts
TTITLE1=Sandy Posey - Born A Woman
TTITLE2=Dave Dudley - Cowboy Boots
TTITLE3=Freddy Fender - Sugar Coated Love
TTITLE4=Dave Travis - Sweet Country Music
TTITLE5=Donna Fargo - Daddy
TTITLE6=Kitty Wells - It Wasn't  Good Who Made Honky Tonk Angels
TTITLE7=Buck Owens - Rhythm and Booze
TTITLE8=Carl Perkins - Dixie Fried
TTITLE9=Kitty Wells - Making Believe
TTITLE10=Merle Haggard - Today I Started Lovin' You Again
TTITLE11=Ricky Nelson - Garden Party
TTITLE12=Faron Young - Country Girl
TTITLE13=Brenda Lee - Medley - Jambalaya, Is It True?....
TTITLE14=Freddy Fender - Tell It Like It Is
TTITLE15=Waylon Jennings - Abilene
TTITLE16=Tanya Tucker - The Night They Drove Ole Dixie Down
TTITLE17=Johnny Paycheck - Take This Job And Shove It
TTITLE18=Roy Acuff - Tennessee Waltz
TTITLE19=Ned Miller - From A Jack To A King
TTITLE20=Loretta Lynn - Blue Kentucky Girl
TTITLE21=Frankie Laine - Moonlight Gambler
TTITLE22=Billie Jo Spears - Look What They're Done To My Song Ma
TTITLE23=Hank Locklin - Send Me The Pillow You Dream On
TTITLE24=Johnny Paycheck - Someone To Give My Love To
EXTD=
EXTT0=
EXTT1=
EXTT2=
EXTT3=
EXTT4=
EXTT5=
EXTT6=
EXTT7=
EXTT8=
EXTT9=
EXTT10=
EXTT11=
EXTT12=
EXTT13=
EXTT14=
EXTT15=
EXTT16=
EXTT17=
EXTT18=
EXTT19=
EXTT20=
EXTT21=
EXTT22=
EXTT23=
EXTT24=
PLAYORDER=
